# xmcd CD database file generated by OrangeCD 6.4
#
# Track frame offsets:
#	150
#	14743
#	28671
#	40815
#	57196
#	74430
#	91365
#	105853
#	120341
#	137291
#	151166
#	158966
#	167634
#	180140
#	190246
#	207227
#
# Disc length: 2953 seconds
#
# Revision: 0
# Processed by: cddbd v1.5.2PL0 Copyright (c) Steve Scherf et al.
# Submitted via: OrangeCD 6.4
#
DISCID=c30b8710
DTITLE=Swindle P. Hurst - Swindle P. Hurst
DYEAR=2010
DGENRE=
TTITLE0=I Love You, Still
TTITLE1=Danny Ray
TTITLE2=Pickle In A Bag
TTITLE3=Big Ole Plastic Cock
TTITLE4=Spring In My Step
TTITLE5=Maybe Tonight
TTITLE6=Mama Says Annie
TTITLE7=Jamie's Song
TTITLE8=Jolly Roger
TTITLE9=Dear Brother
TTITLE10=Detroit Holler
TTITLE11=Richard
TTITLE12=Itchy Feet
TTITLE13=Fireflies
TTITLE14=Honorable Mention
TTITLE15=[Unknown]
EXTD=
EXTT0=
EXTT1=
EXTT2=
EXTT3=
EXTT4=
EXTT5=
EXTT6=
EXTT7=
EXTT8=
EXTT9=
EXTT10=
EXTT11=
EXTT12=
EXTT13=
EXTT14=
EXTT15=
PLAYORDER=
